<svg width="18" height="16" viewBox="0 0 18 16" fill="none" xmlns="http://www.w3.org/2000/svg">
<path d="M9.81341 0.722328L11.6688 4.40761C11.8055 4.67461 12.0664 4.86002 12.3673 4.90123L16.5348 5.50116C16.7782 5.53494 16.9991 5.66185 17.1483 5.85551C17.2958 6.0467 17.3592 6.28898 17.3234 6.52713C17.2942 6.72491 17.2 6.90786 17.0558 7.04795L14.036 9.94129C13.8151 10.1432 13.7151 10.4423 13.7684 10.7349L14.5119 14.8025C14.5911 15.2937 14.2619 15.7568 13.7684 15.8499C13.565 15.8821 13.3567 15.8483 13.1733 15.756L9.45583 13.8417C9.17994 13.704 8.85403 13.704 8.57814 13.8417L4.86068 15.756C4.40391 15.9958 3.83796 15.8326 3.58374 15.3876C3.48955 15.2104 3.45621 15.0085 3.48705 14.8116L4.23054 10.7431C4.28389 10.4514 4.18303 10.1506 3.96298 9.94871L0.943169 7.05702C0.583925 6.7142 0.57309 6.14971 0.918997 5.79453C0.926499 5.78711 0.934834 5.77887 0.943169 5.77063C1.08653 5.62642 1.27491 5.53494 1.47828 5.51105L5.64584 4.91029C5.94591 4.86826 6.2068 4.6845 6.34433 4.41585L8.13305 0.722328C8.29225 0.405882 8.62232 0.208927 8.98073 0.217168H9.09242C9.40332 0.254251 9.67421 0.444613 9.81341 0.722328Z" fill="#FAC412"/>
</svg>
